STARTFONT 2.1
FONT -Sun-Gallant-Demi-R-Normal--19-190-72-72-M-120-ISO8859-1
SIZE 19 72 72
FONTBOUNDINGBOX 12 20 0 -5

STARTPROPERTIES 21
FONTNAME_REGISTRY ""
FOUNDRY "Sun"
FAMILY_NAME "Gallant"
WEIGHT_NAME "Demi"
SLANT "R"
SETWIDTH_NAME "Normal"
ADD_STYLE_NAME ""
PIXEL_SIZE 19
POINT_SIZE 190
RESOLUTION_X 72
RESOLUTION_Y 72
SPACING "M"
AVERAGE_WIDTH 120
CHARSET_REGISTRY "ISO8859"
CHARSET_ENCODING "1"
WEIGHT 10
X_HEIGHT -1
QUAD_WIDTH 12
DEFAULT_CHAR 32
FONT_DESCENT 5
FONT_ASCENT 15
ENDPROPERTIES

CHARS 191

STARTCHAR <unknown>
ENCODING 32
SWIDTH 42 0
DWIDTH 12 0
BBX 12 20 0 -5
BITMAP
0000
0000
0000
0000
0000
0000
0000
0000
0000
0000
0000
0000
0000
0000
0000
0000
0000
0000
0000
0000
ENDCHAR

STARTCHAR <unknown>
ENCODING 33
SWIDTH 42 0
DWIDTH 12 0
BBX 12 20 0 -5
BITMAP
0600
0600
0600
0600
0600
0600
0600
0600
0600
0600
0600
0000
0000
0600
0600
0000
0000
0000
0000
0000
ENDCHAR

STARTCHAR <unknown>
ENCODING 34
SWIDTH 42 0
DWIDTH 12 0
BBX 12 20 0 -5
BITMAP
1980
1980
1980
1980
1980
1980
0000
0000
0000
0000
0000
0000
0000
0000
0000
0000
0000
0000
0000
0000
ENDCHAR

STARTCHAR <unknown>
ENCODING 35
SWIDTH 42 0
DWIDTH 12 0
BBX 12 20 0 -5
BITMAP
0330
0330
0330
0660
1FF0
1FF0
0CC0
0CC0
1980
1980
7FC0
7FC0
3300
6600
6600
0000
0000
0000
0000
0000
ENDCHAR

STARTCHAR <unknown>
ENCODING 36
SWIDTH 42 0
DWIDTH 12 0
BBX 12 20 0 -5
BITMAP
0600
1F80
3FC0
66E0
6660
6600
3E00
1F80
07C0
0660
0660
6660
7FC0
3F80
0600
0000
0000
0000
0000
0000
ENDCHAR

STARTCHAR <unknown>
ENCODING 37
SWIDTH 42 0
DWIDTH 12 0
BBX 12 20 0 -5
BITMAP
0000
38C0
4CC0
4580
6580
3B00
0300
0600
0600
0C00
0DC0
1A60
1A20
3320
31C0
0000
0000
0000
0000
0000
ENDCHAR

STARTCHAR <unknown>
ENCODING 38
SWIDTH 42 0
DWIDTH 12 0
BBX 12 20 0 -5
BITMAP
0700
0F80
18C0
18C0
18C0
0F80
1E00
3E00
7700
6360
61E0
61C0
6180
3FE0
1E60
0000
0000
0000
0000
0000
ENDCHAR

STARTCHAR <unknown>
ENCODING 39
SWIDTH 42 0
DWIDTH 12 0
BBX 12 20 0 -5
BITMAP
0C00
1E00
1E00
0600
0600
0C00
1800
1000
0000
0000
0000
0000
0000
0000
0000
0000
0000
0000
0000
0000
ENDCHAR

STARTCHAR <unknown>
ENCODING 40
SWIDTH 42 0
DWIDTH 12 0
BBX 12 20 0 -5
BITMAP
0180
0300
0600
0600
0C00
0C00
0C00
0C00
0C00
0C00
0C00
0600
0600
0300
0180
0000
0000
0000
0000
0000
ENDCHAR

STARTCHAR <unknown>
ENCODING 41
SWIDTH 42 0
DWIDTH 12 0
BBX 12 20 0 -5
BITMAP
1800
0C00
0600
0600
0300
0300
0300
0300
0300
0300
0300
0600
0600
0C00
1800
0000
0000
0000
0000
0000
ENDCHAR

STARTCHAR <unknown>
ENCODING 42
SWIDTH 42 0
DWIDTH 12 0
BBX 12 20 0 -5
BITMAP
0000
0000
0000
0000
0F00
0600
6660
76E0
1980
0000
1980
76E0
6660
0600
0F00
0000
0000
0000
0000
0000
ENDCHAR

STARTCHAR <unknown>
ENCODING 43
SWIDTH 42 0
DWIDTH 12 0
BBX 12 20 0 -5
BITMAP
0000
0000
0000
0000
0000
0600
0600
0600
0600
7FE0
7FE0
0600
0600
0600
0600
0000
0000
0000
0000
0000
ENDCHAR

STARTCHAR <unknown>
ENCODING 44
SWIDTH 42 0
DWIDTH 12 0
BBX 12 20 0 -5
BITMAP
0000
0000
0000
0000
0000
0000
0000
0000
0000
0000
0000
0000
0C00
1E00
1E00
0600
0600
0C00
1800
1000
ENDCHAR

STARTCHAR <unknown>
ENCODING 45
SWIDTH 42 0
DWIDTH 12 0
BBX 12 20 0 -5
BITMAP
0000
0000
0000
0000
0000
0000
0000
0000
0000
7FE0
7FE0
0000
0000
0000
0000
0000
0000
0000
0000
0000
ENDCHAR

STARTCHAR <unknown>
ENCODING 46
SWIDTH 42 0
DWIDTH 12 0
BBX 12 20 0 -5
BITMAP
0000
0000
0000
0000
0000
0000
0000
0000
0000
0000
0000
0C00
1E00
1E00
0C00
0000
0000
0000
0000
0000
ENDCHAR

STARTCHAR <unknown>
ENCODING 47
SWIDTH 42 0
DWIDTH 12 0
BBX 12 20 0 -5
BITMAP
0060
00C0
00C0
0180
0180
0300
0300
0600
0600
0C00
0C00
1800
1800
3000
3000
6000
0000
0000
0000
0000
ENDCHAR

STARTCHAR <unknown>
ENCODING 48
SWIDTH 42 0
DWIDTH 12 0
BBX 12 20 0 -5
BITMAP
0700
0F80
1180
10C0
30C0
30C0
30C0
30C0
30C0
30C0
30C0
3080
1880
1F00
0E00
0000
0000
0000
0000
0000
ENDCHAR

STARTCHAR <unknown>
ENCODING 49
SWIDTH 42 0
DWIDTH 12 0
BBX 12 20 0 -5
BITMAP
0200
0600
0E00
1E00
3600
0600
0600
0600
0600
0600
0600
0600
0600
0600
3FC0
0000
0000
0000
0000
0000
ENDCHAR

STARTCHAR <unknown>
ENCODING 50
SWIDTH 42 0
DWIDTH 12 0
BBX 12 20 0 -5
BITMAP
1F00
3F80
61C0
40C0
00C0
00C0
00C0
0180
0300
0600
0C00
1800
3020
7FE0
7FE0
0000
0000
0000
0000
0000
ENDCHAR

STARTCHAR <unknown>
ENCODING 51
SWIDTH 42 0
DWIDTH 12 0
BBX 12 20 0 -5
BITMAP
0F80
1FC0
20E0
4060
0060
00E0
07C0
0FC0
00E0
0060
0060
4060
6040
3F80
1F00
0000
0000
0000
0000
0000
ENDCHAR

STARTCHAR <unknown>
ENCODING 52
SWIDTH 42 0
DWIDTH 12 0
BBX 12 20 0 -5
BITMAP
0180
0380
0380
0580
0580
0980
0980
1180
1180
2180
3FE0
7FE0
0180
0180
0180
0000
0000
0000
0000
0000
ENDCHAR

STARTCHAR <unknown>
ENCODING 53
SWIDTH 42 0
DWIDTH 12 0
BBX 12 20 0 -5
BITMAP
0FC0
0FC0
1000
1000
2000
3F80
31C0
00E0
0060
0060
0060
4060
6060
30C0
1F80
0000
0000
0000
0000
0000
ENDCHAR

STARTCHAR <unknown>
ENCODING 54
SWIDTH 42 0
DWIDTH 12 0
BBX 12 20 0 -5
BITMAP
0700
0C00
1800
3000
3000
6000
6780
6FC0
70E0
6060
6060
6060
7040
3F80
1F00
0000
0000
0000
0000
0000
ENDCHAR

STARTCHAR <unknown>
ENCODING 55
SWIDTH 42 0
DWIDTH 12 0
BBX 12 20 0 -5
BITMAP
1FE0
3FE0
6040
0040
00C0
0080
0080
0180
0100
0100
0300
0200
0200
0600
0400
0000
0000
0000
0000
0000
ENDCHAR

STARTCHAR <unknown>
ENCODING 56
SWIDTH 42 0
DWIDTH 12 0
BBX 12 20 0 -5
BITMAP
0F00
1180
30C0
30C0
30C0
1880
0D00
0600
0B00
1180
30C0
30C0
30C0
1880
0F00
0000
0000
0000
0000
0000
ENDCHAR

STARTCHAR <unknown>
ENCODING 57
SWIDTH 42 0
DWIDTH 12 0
BBX 12 20 0 -5
BITMAP
0F80
11C0
20E0
6060
6060
6060
70E0
3F60
1E60
0060
00C0
00C0
0180
0700
3C00
0000
0000
0000
0000
0000
ENDCHAR

STARTCHAR <unknown>
ENCODING 58
SWIDTH 42 0
DWIDTH 12 0
BBX 12 20 0 -5
BITMAP
0000
0000
0000
0000
0000
0C00
1E00
1E00
0C00
0000
0000
0C00
1E00
1E00
0C00
0000
0000
0000
0000
0000
ENDCHAR

STARTCHAR <unknown>
ENCODING 59
SWIDTH 42 0
DWIDTH 12 0
BBX 12 20 0 -5
BITMAP
0000
0000
0000
0000
0000
0000
0C00
1E00
1E00
0C00
0000
0000
0C00
1E00
1E00
0600
0600
0C00
1800
1000
ENDCHAR

STARTCHAR <unknown>
ENCODING 60
SWIDTH 42 0
DWIDTH 12 0
BBX 12 20 0 -5
BITMAP
0000
0000
0000
0000
0000
0060
01C0
0700
1C00
7000
7000
1C00
0700
01C0
0060
0000
0000
0000
0000
0000
ENDCHAR

STARTCHAR <unknown>
ENCODING 61
SWIDTH 42 0
DWIDTH 12 0
BBX 12 20 0 -5
BITMAP
0000
0000
0000
0000
0000
0000
0000
7FE0
7FE0
0000
0000
7FE0
7FE0
0000
0000
0000
0000
0000
0000
0000
ENDCHAR

STARTCHAR <unknown>
ENCODING 62
SWIDTH 42 0
DWIDTH 12 0
BBX 12 20 0 -5
BITMAP
0000
0000
0000
0000
0000
6000
3800
0E00
0380
00E0
00E0
0380
0E00
3800
6000
0000
0000
0000
0000
0000
ENDCHAR

STARTCHAR <unknown>
ENCODING 63
SWIDTH 42 0
DWIDTH 12 0
BBX 12 20 0 -5
BITMAP
0F00
1F80
39C0
20C0
00C0
00C0
0180
0300
0600
0C00
0C00
0000
0000
0C00
0C00
0000
0000
0000
0000
0000
ENDCHAR

STARTCHAR <unknown>
ENCODING 64
SWIDTH 42 0
DWIDTH 12 0
BBX 12 20 0 -5
BITMAP
0000
0000
0000
0F80
3FC0
3060
6060
6720
6FA0
6CA0
6CA0
67E0
6000
3000
3FE0
0FE0
0000
0000
0000
0000
ENDCHAR

STARTCHAR <unknown>
ENCODING 65
SWIDTH 42 0
DWIDTH 12 0
BBX 12 20 0 -5
BITMAP
0000
0600
0600
0B00
0B00
0900
1180
1180
1080
3FC0
20C0
2040
4060
4060
E0F0
0000
0000
0000
0000
0000
ENDCHAR

STARTCHAR <unknown>
ENCODING 66
SWIDTH 42 0
DWIDTH 12 0
BBX 12 20 0 -5
BITMAP
0000
FF00
6080
60C0
60C0
60C0
6180
7F80
60C0
6060
6060
6060
6060
60C0
FF80
0000
0000
0000
0000
0000
ENDCHAR

STARTCHAR <unknown>
ENCODING 67
SWIDTH 42 0
DWIDTH 12 0
BBX 12 20 0 -5
BITMAP
0000
0FC0
1060
2020
2000
6000
6000
6000
6000
6000
6000
2000
3020
1840
0F80
0000
0000
0000
0000
0000
ENDCHAR

STARTCHAR <unknown>
ENCODING 68
SWIDTH 42 0
DWIDTH 12 0
BBX 12 20 0 -5
BITMAP
0000
FF00
61C0
60C0
6060
6060
6060
6060
6060
6060
6060
6060
6040
6180
FE00
0000
0000
0000
0000
0000
ENDCHAR

STARTCHAR <unknown>
ENCODING 69
SWIDTH 42 0
DWIDTH 12 0
BBX 12 20 0 -5
BITMAP
0000
7FC0
3040
3040
3000
3000
3080
3F80
3080
3000
3000
3000
3020
3020
7FE0
0000
0000
0000
0000
0000
ENDCHAR

STARTCHAR <unknown>
ENCODING 70
SWIDTH 42 0
DWIDTH 12 0
BBX 12 20 0 -5
BITMAP
0000
7FC0
3040
3040
3000
3000
3080
3F80
3080
3000
3000
3000
3000
3000
7800
0000
0000
0000
0000
0000
ENDCHAR

STARTCHAR <unknown>
ENCODING 71
SWIDTH 42 0
DWIDTH 12 0
BBX 12 20 0 -5
BITMAP
0000
0FC0
1060
2020
2000
6000
6000
6000
6000
61F0
6060
2060
3060
1860
0F80
0000
0000
0000
0000
0000
ENDCHAR

STARTCHAR <unknown>
ENCODING 72
SWIDTH 42 0
DWIDTH 12 0
BBX 12 20 0 -5
BITMAP
0000
F0F0
6060
6060
6060
6060
6060
7FE0
6060
6060
6060
6060
6060
6060
F0F0
0000
0000
0000
0000
0000
ENDCHAR

STARTCHAR <unknown>
ENCODING 73
SWIDTH 42 0
DWIDTH 12 0
BBX 12 20 0 -5
BITMAP
0000
1F80
0600
0600
0600
0600
0600
0600
0600
0600
0600
0600
0600
0600
1F80
0000
0000
0000
0000
0000
ENDCHAR

STARTCHAR <unknown>
ENCODING 74
SWIDTH 42 0
DWIDTH 12 0
BBX 12 20 0 -5
BITMAP
0000
1F80
0600
0600
0600
0600
0600
0600
0600
0600
0600
0600
0600
0600
0600
0600
0600
0400
3800
3000
ENDCHAR

STARTCHAR <unknown>
ENCODING 75
SWIDTH 42 0
DWIDTH 12 0
BBX 12 20 0 -5
BITMAP
0000
F0E0
6180
6300
6600
6C00
7800
7800
7C00
6E00
6700
6380
61C0
60E0
F070
0000
0000
0000
0000
0000
ENDCHAR

STARTCHAR <unknown>
ENCODING 76
SWIDTH 42 0
DWIDTH 12 0
BBX 12 20 0 -5
BITMAP
0000
7800
3000
3000
3000
3000
3000
3000
3000
3000
3000
3000
3020
3020
7FE0
0000
0000
0000
0000
0000
ENDCHAR

STARTCHAR <unknown>
ENCODING 77
SWIDTH 42 0
DWIDTH 12 0
BBX 12 20 0 -5
BITMAP
0000
E070
60E0
70E0
70E0
70E0
5960
5960
5960
4D60
4E60
4E60
4460
4460
E4F0
0000
0000
0000
0000
0000
ENDCHAR

STARTCHAR <unknown>
ENCODING 78
SWIDTH 42 0
DWIDTH 12 0
BBX 12 20 0 -5
BITMAP
0000
C070
6020
7020
7820
5820
4C20
4620
4720
4320
41A0
40E0
40E0
4060
E030
0000
0000
0000
0000
0000
ENDCHAR

STARTCHAR <unknown>
ENCODING 79
SWIDTH 42 0
DWIDTH 12 0
BBX 12 20 0 -5
BITMAP
0000
0F00
11C0
20C0
2060
6060
6060
6060
6060
6060
6060
2040
3040
1880
0F00
0000
0000
0000
0000
0000
ENDCHAR

STARTCHAR <unknown>
ENCODING 80
SWIDTH 42 0
DWIDTH 12 0
BBX 12 20 0 -5
BITMAP
0000
7F80
30C0
3060
3060
3060
30C0
3780
3000
3000
3000
3000
3000
3000
7800
0000
0000
0000
0000
0000
ENDCHAR

STARTCHAR <unknown>
ENCODING 81
SWIDTH 42 0
DWIDTH 12 0
BBX 12 20 0 -5
BITMAP
0000
0F00
11C0
20C0
2060
6060
6060
6060
6060
6060
6060
3040
3840
1F80
0E00
1F00
2390
01E0
0000
0000
ENDCHAR

STARTCHAR <unknown>
ENCODING 82
SWIDTH 42 0
DWIDTH 12 0
BBX 12 20 0 -5
BITMAP
0000
FF00
6180
60C0
60C0
60C0
6080
7F00
7C00
6E00
6700
6380
61C0
60E0
F070
0000
0000
0000
0000
0000
ENDCHAR

STARTCHAR <unknown>
ENCODING 83
SWIDTH 42 0
DWIDTH 12 0
BBX 12 20 0 -5
BITMAP
0000
1FE0
3060
6020
6020
7000
3C00
1E00
0780
01C0
00E0
4060
4060
60C0
7F80
0000
0000
0000
0000
0000
ENDCHAR

STARTCHAR <unknown>
ENCODING 84
SWIDTH 42 0
DWIDTH 12 0
BBX 12 20 0 -5
BITMAP
0000
7FE0
4620
0600
0600
0600
0600
0600
0600
0600
0600
0600
0600
0600
1F80
0000
0000
0000
0000
0000
ENDCHAR

STARTCHAR <unknown>
ENCODING 85
SWIDTH 42 0
DWIDTH 12 0
BBX 12 20 0 -5
BITMAP
0000
F070
6020
6020
6020
6020
6020
6020
6020
6020
6020
6020
7040
3FC0
1F80
0000
0000
0000
0000
0000
ENDCHAR

STARTCHAR <unknown>
ENCODING 86
SWIDTH 42 0
DWIDTH 12 0
BBX 12 20 0 -5
BITMAP
0000
E0E0
6040
3080
3080
3080
1900
1900
1900
0A00
0E00
0E00
0400
0400
0400
0000
0000
0000
0000
0000
ENDCHAR

STARTCHAR <unknown>
ENCODING 87
SWIDTH 42 0
DWIDTH 12 0
BBX 12 20 0 -5
BITMAP
0000
FEF0
6620
6620
6620
7620
7740
3340
3740
3BC0
3B80
1980
1980
1980
1980
0000
0000
0000
0000
0000
ENDCHAR

STARTCHAR <unknown>
ENCODING 88
SWIDTH 42 0
DWIDTH 12 0
BBX 12 20 0 -5
BITMAP
0000
F070
6020
3040
3880
1880
0D00
0600
0600
0B00
1180
11C0
20C0
4060
E0F0
0000
0000
0000
0000
0000
ENDCHAR

STARTCHAR <unknown>
ENCODING 89
SWIDTH 42 0
DWIDTH 12 0
BBX 12 20 0 -5
BITMAP
0000
F070
6020
3040
1880
1880
0D00
0600
0600
0600
0600
0600
0600
0600
0F00
0000
0000
0000
0000
0000
ENDCHAR

STARTCHAR <unknown>
ENCODING 90
SWIDTH 42 0
DWIDTH 12 0
BBX 12 20 0 -5
BITMAP
0000
3FE0
20C0
00C0
0180
0180
0300
0300
0600
0600
0C00
0C00
1800
1820
3FE0
0000
0000
0000
0000
0000
ENDCHAR

STARTCHAR <unknown>
ENCODING 91
SWIDTH 42 0
DWIDTH 12 0
BBX 12 20 0 -5
BITMAP
0F80
0F80
0C00
0C00
0C00
0C00
0C00
0C00
0C00
0C00
0C00
0C00
0C00
0F80
0F80
0000
0000
0000
0000
0000
ENDCHAR

STARTCHAR <unknown>
ENCODING 92
SWIDTH 42 0
DWIDTH 12 0
BBX 12 20 0 -5
BITMAP
6000
3000
3000
1800
1800
0C00
0C00
0600
0600
0300
0300
0180
0180
00C0
00C0
0060
0000
0000
0000
0000
ENDCHAR

STARTCHAR <unknown>
ENCODING 93
SWIDTH 42 0
DWIDTH 12 0
BBX 12 20 0 -5
BITMAP
1F00
1F00
0300
0300
0300
0300
0300
0300
0300
0300
0300
0300
0300
1F00
1F00
0000
0000
0000
0000
0000
ENDCHAR

STARTCHAR <unknown>
ENCODING 94
SWIDTH 42 0
DWIDTH 12 0
BBX 12 20 0 -5
BITMAP
0400
0E00
1B00
3180
60C0
0000
0000
0000
0000
0000
0000
0000
0000
0000
0000
0000
0000
0000
0000
0000
ENDCHAR

STARTCHAR <unknown>
ENCODING 95
SWIDTH 42 0
DWIDTH 12 0
BBX 12 20 0 -5
BITMAP
0000
0000
0000
0000
0000
0000
0000
0000
0000
0000
0000
0000
0000
0000
0000
0000
FFF0
FFF0
0000
0000
ENDCHAR

STARTCHAR <unknown>
ENCODING 96
SWIDTH 42 0
DWIDTH 12 0
BBX 12 20 0 -5
BITMAP
0100
0300
0600
0600
0780
0780
0300
0000
0000
0000
0000
0000
0000
0000
0000
0000
0000
0000
0000
0000
ENDCHAR

STARTCHAR <unknown>
ENCODING 97
SWIDTH 42 0
DWIDTH 12 0
BBX 12 20 0 -5
BITMAP
0000
0000
0000
0000
0000
0F80
18C0
10C0
03C0
1CC0
30C0
30C0
30C0
39C0
1EE0
0000
0000
0000
0000
0000
ENDCHAR

STARTCHAR <unknown>
ENCODING 98
SWIDTH 42 0
DWIDTH 12 0
BBX 12 20 0 -5
BITMAP
2000
6000
E000
6000
6000
6780
6FC0
70E0
6060
6060
6060
6060
7060
78C0
4F80
0000
0000
0000
0000
0000
ENDCHAR

STARTCHAR <unknown>
ENCODING 99
SWIDTH 42 0
DWIDTH 12 0
BBX 12 20 0 -5
BITMAP
0000
0000
0000
0000
0000
1F80
31C0
20C0
6000
6000
6000
6000
7040
30C0
1F80
0000
0000
0000
0000
0000
ENDCHAR

STARTCHAR <unknown>
ENCODING 100
SWIDTH 42 0
DWIDTH 12 0
BBX 12 20 0 -5
BITMAP
0060
00E0
0060
0060
0060
0F60
31E0
20E0
6060
6060
6060
6060
70E0
3960
1E70
0000
0000
0000
0000
0000
ENDCHAR

STARTCHAR <unknown>
ENCODING 101
SWIDTH 42 0
DWIDTH 12 0
BBX 12 20 0 -5
BITMAP
0000
0000
0000
0000
0000
0F00
30C0
6060
6060
7FE0
6000
6000
3000
1860
0F80
0000
0000
0000
0000
0000
ENDCHAR

STARTCHAR <unknown>
ENCODING 102
SWIDTH 42 0
DWIDTH 12 0
BBX 12 20 0 -5
BITMAP
0380
04C0
04C0
0C00
0C00
0C00
0C00
3F80
0C00
0C00
0C00
0C00
0C00
0C00
1E00
0000
0000
0000
0000
0000
ENDCHAR

STARTCHAR <unknown>
ENCODING 103
SWIDTH 42 0
DWIDTH 12 0
BBX 12 20 0 -5
BITMAP
0000
0000
0000
0000
0000
1F20
31E0
60C0
60C0
60C0
3180
3F00
6000
7FC0
3FE0
2060
4020
4020
7FC0
3F80
ENDCHAR

STARTCHAR <unknown>
ENCODING 104
SWIDTH 42 0
DWIDTH 12 0
BBX 12 20 0 -5
BITMAP
1000
3000
7000
3000
3000
3780
39C0
30C0
30C0
30C0
30C0
30C0
30C0
30C0
79E0
0000
0000
0000
0000
0000
ENDCHAR

STARTCHAR <unknown>
ENCODING 105
SWIDTH 42 0
DWIDTH 12 0
BBX 12 20 0 -5
BITMAP
0000
0600
0600
0000
0000
1E00
0600
0600
0600
0600
0600
0600
0600
0600
1F80
0000
0000
0000
0000
0000
ENDCHAR

STARTCHAR <unknown>
ENCODING 106
SWIDTH 42 0
DWIDTH 12 0
BBX 12 20 0 -5
BITMAP
0000
00C0
00C0
0000
0000
03C0
00C0
00C0
00C0
00C0
00C0
00C0
00C0
00C0
00C0
20C0
30C0
3880
1F00
0E00
ENDCHAR

STARTCHAR <unknown>
ENCODING 107
SWIDTH 42 0
DWIDTH 12 0
BBX 12 20 0 -5
BITMAP
6000
E000
6000
6000
6000
61C0
6300
6600
7C00
7800
7C00
6E00
6700
6380
F1E0
0000
0000
0000
0000
0000
ENDCHAR

STARTCHAR <unknown>
ENCODING 108
SWIDTH 42 0
DWIDTH 12 0
BBX 12 20 0 -5
BITMAP
1E00
0600
0600
0600
0600
0600
0600
0600
0600
0600
0600
0600
0600
0600
1F80
0000
0000
0000
0000
0000
ENDCHAR

STARTCHAR <unknown>
ENCODING 109
SWIDTH 42 0
DWIDTH 12 0
BBX 12 20 0 -5
BITMAP
0000
0000
0000
0000
0000
DDC0
6EE0
6660
6660
6660
6660
6660
6660
6660
EF70
0000
0000
0000
0000
0000
ENDCHAR

STARTCHAR <unknown>
ENCODING 110
SWIDTH 42 0
DWIDTH 12 0
BBX 12 20 0 -5
BITMAP
0000
0000
0000
0000
0000
2780
79C0
30C0
30C0
30C0
30C0
30C0
30C0
30C0
79E0
0000
0000
0000
0000
0000
ENDCHAR

STARTCHAR <unknown>
ENCODING 111
SWIDTH 42 0
DWIDTH 12 0
BBX 12 20 0 -5
BITMAP
0000
0000
0000
0000
0000
0F80
11C0
20E0
6060
6060
6060
6060
7040
3880
1F00
0000
0000
0000
0000
0000
ENDCHAR

STARTCHAR <unknown>
ENCODING 112
SWIDTH 42 0
DWIDTH 12 0
BBX 12 20 0 -5
BITMAP
0000
0000
0000
0000
0000
EF80
71C0
60E0
6060
6060
6060
6060
6040
7080
7F00
6000
6000
6000
6000
F000
ENDCHAR

STARTCHAR <unknown>
ENCODING 113
SWIDTH 42 0
DWIDTH 12 0
BBX 12 20 0 -5
BITMAP
0000
0000
0000
0000
0000
0F20
11E0
20E0
6060
6060
6060
6060
7060
38E0
1FE0
0060
0060
0060
0060
00F0
ENDCHAR

STARTCHAR <unknown>
ENCODING 114
SWIDTH 42 0
DWIDTH 12 0
BBX 12 20 0 -5
BITMAP
0000
0000
0000
0000
0000
7380
34C0
38C0
3000
3000
3000
3000
3000
3000
7800
0000
0000
0000
0000
0000
ENDCHAR

STARTCHAR <unknown>
ENCODING 115
SWIDTH 42 0
DWIDTH 12 0
BBX 12 20 0 -5
BITMAP
0000
0000
0000
0000
0000
1FC0
30C0
3040
3800
1E00
0780
01C0
20C0
30C0
3F80
0000
0000
0000
0000
0000
ENDCHAR

STARTCHAR <unknown>
ENCODING 116
SWIDTH 42 0
DWIDTH 12 0
BBX 12 20 0 -5
BITMAP
0000
0000
0400
0400
0C00
7FC0
0C00
0C00
0C00
0C00
0C00
0C00
0C20
0E40
0780
0000
0000
0000
0000
0000
ENDCHAR

STARTCHAR <unknown>
ENCODING 117
SWIDTH 42 0
DWIDTH 12 0
BBX 12 20 0 -5
BITMAP
0000
0000
0000
0000
0000
79E0
30C0
30C0
30C0
30C0
30C0
30C0
30C0
39C0
1E60
0000
0000
0000
0000
0000
ENDCHAR

STARTCHAR <unknown>
ENCODING 118
SWIDTH 42 0
DWIDTH 12 0
BBX 12 20 0 -5
BITMAP
0000
0000
0000
0000
0000
F070
6020
3040
3040
1880
1880
0D00
0D00
0600
0600
0000
0000
0000
0000
0000
ENDCHAR

STARTCHAR <unknown>
ENCODING 119
SWIDTH 42 0
DWIDTH 12 0
BBX 12 20 0 -5
BITMAP
0000
0000
0000
0000
0000
FF70
6620
6620
6620
3740
3B40
3B40
1980
1980
1980
0000
0000
0000
0000
0000
ENDCHAR

STARTCHAR <unknown>
ENCODING 120
SWIDTH 42 0
DWIDTH 12 0
BBX 12 20 0 -5
BITMAP
0000
0000
0000
0000
0000
F8F0
7040
3880
1D00
0E00
0700
0B80
11C0
20E0
F1F0
0000
0000
0000
0000
0000
ENDCHAR

STARTCHAR <unknown>
ENCODING 121
SWIDTH 42 0
DWIDTH 12 0
BBX 12 20 0 -5
BITMAP
0000
0000
0000
0000
0000
F0F0
6020
3040
3040
1880
1880
0D00
0D00
0600
0600
0400
0C00
0800
7800
7000
ENDCHAR

STARTCHAR <unknown>
ENCODING 122
SWIDTH 42 0
DWIDTH 12 0
BBX 12 20 0 -5
BITMAP
0000
0000
0000
0000
0000
7FE0
60E0
41C0
0380
0700
0E00
1C00
3820
7060
7FE0
0000
0000
0000
0000
0000
ENDCHAR

STARTCHAR <unknown>
ENCODING 123
SWIDTH 42 0
DWIDTH 12 0
BBX 12 20 0 -5
BITMAP
0380
0600
0600
0600
0600
0600
0C00
3800
0C00
0600
0600
0600
0600
0600
0380
0000
0000
0000
0000
0000
ENDCHAR

STARTCHAR <unknown>
ENCODING 124
SWIDTH 42 0
DWIDTH 12 0
BBX 12 20 0 -5
BITMAP
0600
0600
0600
0600
0600
0600
0600
0600
0600
0600
0600
0600
0600
0600
0600
0600
0600
0600
0600
0600
ENDCHAR

STARTCHAR <unknown>
ENCODING 125
SWIDTH 42 0
DWIDTH 12 0
BBX 12 20 0 -5
BITMAP
1C00
0600
0600
0600
0600
0600
0300
01C0
0300
0600
0600
0600
0600
0600
1C00
0000
0000
0000
0000
0000
ENDCHAR

STARTCHAR <unknown>
ENCODING 126
SWIDTH 42 0
DWIDTH 12 0
BBX 12 20 0 -5
BITMAP
0000
0000
1C20
3E60
67C0
4380
0000
0000
0000
0000
0000
0000
0000
0000
0000
0000
0000
0000
0000
0000
ENDCHAR

STARTCHAR <unknown>
ENCODING 160
SWIDTH 42 0
DWIDTH 12 0
BBX 12 20 0 -5
BITMAP
0000
0000
0000
0000
0000
0000
0000
0000
0000
0000
0000
0000
0000
0000
0000
0000
0000
0000
0000
0000
ENDCHAR

STARTCHAR <unknown>
ENCODING 161
SWIDTH 42 0
DWIDTH 12 0
BBX 12 20 0 -5
BITMAP
0600
0600
0000
0000
0600
0600
0600
0600
0600
0600
0600
0600
0600
0600
0600
0000
0000
0000
0000
0000
ENDCHAR

STARTCHAR <unknown>
ENCODING 162
SWIDTH 42 0
DWIDTH 12 0
BBX 12 20 0 -5
BITMAP
0000
0000
0000
0600
0600
1F80
36C0
26C0
6600
6600
6600
6600
7640
36C0
1F80
0600
0600
0000
0000
0000
ENDCHAR

STARTCHAR <unknown>
ENCODING 163
SWIDTH 42 0
DWIDTH 12 0
BBX 12 20 0 -5
BITMAP
0000
0F80
1CC0
18C0
1800
1800
1800
7E00
7E00
1800
1800
1800
1800
3E20
7FE0
61C0
0000
0000
0000
0000
ENDCHAR

STARTCHAR <unknown>
ENCODING 164
SWIDTH 42 0
DWIDTH 12 0
BBX 12 20 0 -5
BITMAP
0000
0000
0000
0000
0000
6060
2F40
1F80
30C0
30C0
30C0
30C0
1F80
2F40
6060
0000
0000
0000
0000
0000
ENDCHAR

STARTCHAR <unknown>
ENCODING 165
SWIDTH 42 0
DWIDTH 12 0
BBX 12 20 0 -5
BITMAP
0000
6060
6060
30C0
1980
1980
0F00
0600
0600
1F80
1F80
0600
0600
0600
0600
0000
0000
0000
0000
0000
ENDCHAR

STARTCHAR <unknown>
ENCODING 166
SWIDTH 42 0
DWIDTH 12 0
BBX 12 20 0 -5
BITMAP
0600
0600
0600
0600
0600
0600
0600
0600
0600
0000
0000
0600
0600
0600
0600
0600
0600
0600
0600
0600
ENDCHAR

STARTCHAR <unknown>
ENCODING 167
SWIDTH 42 0
DWIDTH 12 0
BBX 12 20 0 -5
BITMAP
0000
1F00
3180
3180
3000
3000
1F00
3180
3180
1F00
0180
0180
3180
3180
1F00
0000
0000
0000
0000
0000
ENDCHAR

STARTCHAR <unknown>
ENCODING 168
SWIDTH 42 0
DWIDTH 12 0
BBX 12 20 0 -5
BITMAP
0000
0000
1980
1980
0000
0000
0000
0000
0000
0000
0000
0000
0000
0000
0000
0000
0000
0000
0000
0000
ENDCHAR

STARTCHAR <unknown>
ENCODING 169
SWIDTH 42 0
DWIDTH 12 0
BBX 12 20 0 -5
BITMAP
0000
0000
0000
0000
0000
1F80
2040
4F20
59A0
5820
5820
59A0
4F20
2040
1F80
0000
0000
0000
0000
0000
ENDCHAR

STARTCHAR <unknown>
ENCODING 170
SWIDTH 42 0
DWIDTH 12 0
BBX 12 20 0 -5
BITMAP
0000
1F00
3180
0180
0780
1980
3180
3180
3380
1DC0
0000
3FC0
0000
0000
0000
0000
0000
0000
0000
0000
ENDCHAR

STARTCHAR <unknown>
ENCODING 171
SWIDTH 42 0
DWIDTH 12 0
BBX 12 20 0 -5
BITMAP
0000
0000
0000
0000
0000
0000
0660
0CC0
1980
3300
6600
3300
1980
0CC0
0660
0000
0000
0000
0000
0000
ENDCHAR

STARTCHAR <unknown>
ENCODING 172
SWIDTH 42 0
DWIDTH 12 0
BBX 12 20 0 -5
BITMAP
0000
0000
0000
3FC0
3FC0
00C0
00C0
00C0
0000
0000
0000
0000
0000
0000
0000
0000
0000
0000
0000
0000
ENDCHAR

STARTCHAR <unknown>
ENCODING 173
SWIDTH 42 0
DWIDTH 12 0
BBX 12 20 0 -5
BITMAP
0000
0000
0000
0000
0000
0000
0000
0000
0000
7FE0
7FE0
0000
0000
0000
0000
0000
0000
0000
0000
0000
ENDCHAR

STARTCHAR <unknown>
ENCODING 174
SWIDTH 42 0
DWIDTH 12 0
BBX 12 20 0 -5
BITMAP
0000
0000
0000
0000
0000
1F80
2040
5F20
59A0
59A0
5F20
59A0
59A0
2040
1F80
0000
0000
0000
0000
0000
ENDCHAR

STARTCHAR <unknown>
ENCODING 175
SWIDTH 42 0
DWIDTH 12 0
BBX 12 20 0 -5
BITMAP
0000
0000
1F80
1F80
0000
0000
0000
0000
0000
0000
0000
0000
0000
0000
0000
0000
0000
0000
0000
0000
ENDCHAR

STARTCHAR <unknown>
ENCODING 176
SWIDTH 42 0
DWIDTH 12 0
BBX 12 20 0 -5
BITMAP
0F00
1980
1980
1980
0F00
0000
0000
0000
0000
0000
0000
0000
0000
0000
0000
0000
0000
0000
0000
0000
ENDCHAR

STARTCHAR <unknown>
ENCODING 177
SWIDTH 42 0
DWIDTH 12 0
BBX 12 20 0 -5
BITMAP
0000
0000
0000
0600
0600
0600
0600
7FE0
7FE0
0600
0600
0600
0600
0000
7FE0
7FE0
0000
0000
0000
0000
ENDCHAR

STARTCHAR <unknown>
ENCODING 178
SWIDTH 42 0
DWIDTH 12 0
BBX 12 20 0 -5
BITMAP
0F00
1F80
3180
2180
0300
0600
0C00
1840
3FC0
3FC0
0000
0000
0000
0000
0000
0000
0000
0000
0000
0000
ENDCHAR

STARTCHAR <unknown>
ENCODING 179
SWIDTH 42 0
DWIDTH 12 0
BBX 12 20 0 -5
BITMAP
0F00
1B80
2180
0180
0F00
0380
0180
3180
3F80
1F00
0000
0000
0000
0000
0000
0000
0000
0000
0000
0000
ENDCHAR

STARTCHAR <unknown>
ENCODING 180
SWIDTH 42 0
DWIDTH 12 0
BBX 12 20 0 -5
BITMAP
0000
0300
0600
0C00
0000
0000
0000
0000
0000
0000
0000
0000
0000
0000
0000
0000
0000
0000
0000
0000
ENDCHAR

STARTCHAR <unknown>
ENCODING 181
SWIDTH 42 0
DWIDTH 12 0
BBX 12 20 0 -5
BITMAP
0000
0000
0000
0000
0000
30C0
30C0
30C0
30C0
30C0
30C0
30C0
30C0
39C0
36E0
3000
3000
6000
0000
0000
ENDCHAR

STARTCHAR <unknown>
ENCODING 182
SWIDTH 42 0
DWIDTH 12 0
BBX 12 20 0 -5
BITMAP
0000
1FF0
3CC0
7CC0
7CC0
7CC0
3CC0
1CC0
0CC0
0CC0
0CC0
0CC0
0CC0
0CC0
1CE0
0000
0000
0000
0000
0000
ENDCHAR

STARTCHAR <unknown>
ENCODING 183
SWIDTH 42 0
DWIDTH 12 0
BBX 12 20 0 -5
BITMAP
0000
0000
0000
0000
0000
0000
0000
0000
0600
0F00
0F00
0600
0000
0000
0000
0000
0000
0000
0000
0000
ENDCHAR

STARTCHAR <unknown>
ENCODING 184
SWIDTH 42 0
DWIDTH 12 0
BBX 12 20 0 -5
BITMAP
0000
0000
0000
0000
0000
0000
0000
0000
0000
0000
0000
0000
0000
0000
0000
0600
0300
0180
0F00
0000
ENDCHAR

STARTCHAR <unknown>
ENCODING 185
SWIDTH 42 0
DWIDTH 12 0
BBX 12 20 0 -5
BITMAP
0200
0600
0E00
1600
0600
0600
0600
0600
0600
1F80
0000
0000
0000
0000
0000
0000
0000
0000
0000
0000
ENDCHAR

STARTCHAR <unknown>
ENCODING 186
SWIDTH 42 0
DWIDTH 12 0
BBX 12 20 0 -5
BITMAP
0000
0700
1980
10C0
30C0
30C0
30C0
3080
1980
0E00
0000
3FC0
0000
0000
0000
0000
0000
0000
0000
0000
ENDCHAR

STARTCHAR <unknown>
ENCODING 187
SWIDTH 42 0
DWIDTH 12 0
BBX 12 20 0 -5
BITMAP
0000
0000
0000
0000
0000
0000
6600
3300
1980
0CC0
0660
0CC0
1980
3300
6600
0000
0000
0000
0000
0000
ENDCHAR

STARTCHAR <unknown>
ENCODING 188
SWIDTH 42 0
DWIDTH 12 0
BBX 12 20 0 -5
BITMAP
0000
1000
3000
1000
1040
1080
1100
3A40
04C0
0940
1240
2440
47E0
0040
0040
0000
0000
0000
0000
0000
ENDCHAR

STARTCHAR <unknown>
ENCODING 189
SWIDTH 42 0
DWIDTH 12 0
BBX 12 20 0 -5
BITMAP
0000
1000
3000
1000
1040
1080
1100
3A00
05C0
0A20
1020
20C0
4100
0200
03E0
0000
0000
0000
0000
0000
ENDCHAR

STARTCHAR <unknown>
ENCODING 190
SWIDTH 42 0
DWIDTH 12 0
BBX 12 20 0 -5
BITMAP
0000
3800
4400
0400
1840
0480
4500
3A40
04C0
0940
1240
2440
47E0
0040
0040
0000
0000
0000
0000
0000
ENDCHAR

STARTCHAR <unknown>
ENCODING 191
SWIDTH 42 0
DWIDTH 12 0
BBX 12 20 0 -5
BITMAP
0300
0300
0000
0000
0300
0300
0600
0C00
1800
3000
3000
3040
39C0
1F80
0F00
0000
0000
0000
0000
0000
ENDCHAR

STARTCHAR <unknown>
ENCODING 192
SWIDTH 42 0
DWIDTH 12 0
BBX 12 20 0 -5
BITMAP
0C00
0600
0300
0000
0600
0600
0B00
0B00
1980
1180
3FC0
20C0
6060
4060
E0F0
0000
0000
0000
0000
0000
ENDCHAR

STARTCHAR <unknown>
ENCODING 193
SWIDTH 42 0
DWIDTH 12 0
BBX 12 20 0 -5
BITMAP
0300
0600
0C00
0000
0600
0600
0B00
0B00
1980
1180
3FC0
20C0
6060
4060
E0F0
0000
0000
0000
0000
0000
ENDCHAR

STARTCHAR <unknown>
ENCODING 194
SWIDTH 42 0
DWIDTH 12 0
BBX 12 20 0 -5
BITMAP
0600
0F00
1980
0000
0600
0600
0B00
0B00
1980
1180
3FC0
20C0
6060
4060
E0F0
0000
0000
0000
0000
0000
ENDCHAR

STARTCHAR <unknown>
ENCODING 195
SWIDTH 42 0
DWIDTH 12 0
BBX 12 20 0 -5
BITMAP
1C40
3FC0
2380
0000
0600
0600
0B00
0B00
1980
1180
3FC0
20C0
6060
4060
E0F0
0000
0000
0000
0000
0000
ENDCHAR

STARTCHAR <unknown>
ENCODING 196
SWIDTH 42 0
DWIDTH 12 0
BBX 12 20 0 -5
BITMAP
1980
1980
0000
0400
0600
0600
0B00
0B00
1980
1180
3FC0
20C0
6060
4060
E0F0
0000
0000
0000
0000
0000
ENDCHAR

STARTCHAR <unknown>
ENCODING 197
SWIDTH 42 0
DWIDTH 12 0
BBX 12 20 0 -5
BITMAP
0F00
1980
0F00
0400
0600
0600
0B00
0B00
1980
1180
3FC0
20C0
6060
4060
E0F0
0000
0000
0000
0000
0000
ENDCHAR

STARTCHAR <unknown>
ENCODING 198
SWIDTH 42 0
DWIDTH 12 0
BBX 12 20 0 -5
BITMAP
0000
03F0
0710
0710
0B00
0B00
0B20
13E0
1320
3F00
2300
2300
4310
4310
E7F0
0000
0000
0000
0000
0000
ENDCHAR

STARTCHAR <unknown>
ENCODING 199
SWIDTH 42 0
DWIDTH 12 0
BBX 12 20 0 -5
BITMAP
0000
0FC0
1060
2020
2000
6000
6000
6000
6000
6000
6000
2000
3020
1840
0F80
0600
0300
0180
0F00
0000
ENDCHAR

STARTCHAR <unknown>
ENCODING 200
SWIDTH 42 0
DWIDTH 12 0
BBX 12 20 0 -5
BITMAP
0C00
0600
0100
7FE0
3020
3000
3000
3080
3F80
3080
3000
3000
3020
3020
7FE0
0000
0000
0000
0000
0000
ENDCHAR

STARTCHAR <unknown>
ENCODING 201
SWIDTH 42 0
DWIDTH 12 0
BBX 12 20 0 -5
BITMAP
0300
0600
0800
7FE0
3020
3000
3000
3080
3F80
3080
3000
3000
3020
3020
7FE0
0000
0000
0000
0000
0000
ENDCHAR

STARTCHAR <unknown>
ENCODING 202
SWIDTH 42 0
DWIDTH 12 0
BBX 12 20 0 -5
BITMAP
0700
0D80
0000
7FE0
3020
3000
3000
3080
3F80
3080
3000
3000
3020
3020
7FE0
0000
0000
0000
0000
0000
ENDCHAR

STARTCHAR <unknown>
ENCODING 203
SWIDTH 42 0
DWIDTH 12 0
BBX 12 20 0 -5
BITMAP
1980
1980
0000
7FE0
3020
3000
3000
3080
3F80
3080
3000
3000
3020
3020
7FE0
0000
0000
0000
0000
0000
ENDCHAR

STARTCHAR <unknown>
ENCODING 204
SWIDTH 42 0
DWIDTH 12 0
BBX 12 20 0 -5
BITMAP
1800
0C00
0200
1F80
0600
0600
0600
0600
0600
0600
0600
0600
0600
0600
1F80
0000
0000
0000
0000
0000
ENDCHAR

STARTCHAR <unknown>
ENCODING 205
SWIDTH 42 0
DWIDTH 12 0
BBX 12 20 0 -5
BITMAP
0180
0300
0400
1F80
0600
0600
0600
0600
0600
0600
0600
0600
0600
0600
1F80
0000
0000
0000
0000
0000
ENDCHAR

STARTCHAR <unknown>
ENCODING 206
SWIDTH 42 0
DWIDTH 12 0
BBX 12 20 0 -5
BITMAP
0600
0F00
1980
0000
1F80
0600
0600
0600
0600
0600
0600
0600
0600
0600
1F80
0000
0000
0000
0000
0000
ENDCHAR

STARTCHAR <unknown>
ENCODING 207
SWIDTH 42 0
DWIDTH 12 0
BBX 12 20 0 -5
BITMAP
1980
1980
0000
1F80
0600
0600
0600
0600
0600
0600
0600
0600
0600
0600
1F80
0000
0000
0000
0000
0000
ENDCHAR

STARTCHAR <unknown>
ENCODING 208
SWIDTH 42 0
DWIDTH 12 0
BBX 12 20 0 -5
BITMAP
0000
7F00
31C0
30C0
3060
3060
3060
FC60
FC60
3060
3060
3060
3040
3180
7E00
0000
0000
0000
0000
0000
ENDCHAR

STARTCHAR <unknown>
ENCODING 209
SWIDTH 42 0
DWIDTH 12 0
BBX 12 20 0 -5
BITMAP
1C40
3FC0
2380
C070
6020
7020
7820
5C20
4E20
4720
43A0
41E0
40E0
4060
E030
0000
0000
0000
0000
0000
ENDCHAR

STARTCHAR <unknown>
ENCODING 210
SWIDTH 42 0
DWIDTH 12 0
BBX 12 20 0 -5
BITMAP
0C00
0600
0100
0F80
11C0
20C0
2060
6060
6060
6060
6060
2040
3040
1880
0F00
0000
0000
0000
0000
0000
ENDCHAR

STARTCHAR <unknown>
ENCODING 211
SWIDTH 42 0
DWIDTH 12 0
BBX 12 20 0 -5
BITMAP
0180
0300
0400
0F80
11C0
20C0
2060
6060
6060
6060
6060
2040
3040
1880
0F00
0000
0000
0000
0000
0000
ENDCHAR

STARTCHAR <unknown>
ENCODING 212
SWIDTH 42 0
DWIDTH 12 0
BBX 12 20 0 -5
BITMAP
0600
0900
1080
0F00
11C0
20C0
2060
6060
6060
6060
6060
2040
3040
1880
0F00
0000
0000
0000
0000
0000
ENDCHAR

STARTCHAR <unknown>
ENCODING 213
SWIDTH 42 0
DWIDTH 12 0
BBX 12 20 0 -5
BITMAP
1C60
3FC0
2280
0F80
11C0
20C0
2060
6060
6060
6060
6060
2040
3040
1880
0F00
0000
0000
0000
0000
0000
ENDCHAR

STARTCHAR <unknown>
ENCODING 214
SWIDTH 42 0
DWIDTH 12 0
BBX 12 20 0 -5
BITMAP
1980
1980
0000
0F80
11C0
20C0
2060
6060
6060
6060
6060
2040
3040
1880
0F00
0000
0000
0000
0000
0000
ENDCHAR

STARTCHAR <unknown>
ENCODING 215
SWIDTH 42 0
DWIDTH 12 0
BBX 12 20 0 -5
BITMAP
0000
0000
0000
0000
0000
0000
6060
30C0
1980
0F00
0600
0F00
1980
30C0
6060
0000
0000
0000
0000
0000
ENDCHAR

STARTCHAR <unknown>
ENCODING 216
SWIDTH 42 0
DWIDTH 12 0
BBX 12 20 0 -5
BITMAP
0000
0080
0F80
11C0
21C0
2260
6260
6260
6460
6460
6460
2840
3840
1880
1F00
1000
0000
0000
0000
0000
ENDCHAR

STARTCHAR <unknown>
ENCODING 217
SWIDTH 42 0
DWIDTH 12 0
BBX 12 20 0 -5
BITMAP
0C00
0600
E330
6020
6020
6020
6020
6020
6020
6020
6020
6020
7040
3FC0
1F80
0000
0000
0000
0000
0000
ENDCHAR

STARTCHAR <unknown>
ENCODING 218
SWIDTH 42 0
DWIDTH 12 0
BBX 12 20 0 -5
BITMAP
0180
0300
E630
6020
6020
6020
6020
6020
6020
6020
6020
6020
7040
3FC0
1F80
0000
0000
0000
0000
0000
ENDCHAR

STARTCHAR <unknown>
ENCODING 219
SWIDTH 42 0
DWIDTH 12 0
BBX 12 20 0 -5
BITMAP
0700
0D80
E8B0
6020
6020
6020
6020
6020
6020
6020
6020
6020
7040
3FC0
1F80
0000
0000
0000
0000
0000
ENDCHAR

STARTCHAR <unknown>
ENCODING 220
SWIDTH 42 0
DWIDTH 12 0
BBX 12 20 0 -5
BITMAP
1980
1980
E030
6020
6020
6020
6020
6020
6020
6020
6020
6020
7040
3FC0
1F80
0000
0000
0000
0000
0000
ENDCHAR

STARTCHAR <unknown>
ENCODING 221
SWIDTH 42 0
DWIDTH 12 0
BBX 12 20 0 -5
BITMAP
0180
0300
E670
6020
3040
1880
0D00
0600
0600
0600
0600
0600
0600
0600
0F00
0000
0000
0000
0000
0000
ENDCHAR

STARTCHAR <unknown>
ENCODING 222
SWIDTH 42 0
DWIDTH 12 0
BBX 12 20 0 -5
BITMAP
7800
3000
3F80
30C0
3060
3060
3060
30C0
3F80
3000
3000
3000
3000
3000
7800
0000
0000
0000
0000
0000
ENDCHAR

STARTCHAR <unknown>
ENCODING 223
SWIDTH 42 0
DWIDTH 12 0
BBX 12 20 0 -5
BITMAP
0000
0F00
1980
30C0
30C0
30C0
3180
3780
3180
30C0
30C0
30C0
30C0
3180
7700
0000
0000
0000
0000
0000
ENDCHAR

STARTCHAR <unknown>
ENCODING 224
SWIDTH 42 0
DWIDTH 12 0
BBX 12 20 0 -5
BITMAP
0000
0C00
0600
0300
0000
0F80
18C0
10C0
03C0
1CC0
30C0
30C0
30C0
39C0
1EE0
0000
0000
0000
0000
0000
ENDCHAR

STARTCHAR <unknown>
ENCODING 225
SWIDTH 42 0
DWIDTH 12 0
BBX 12 20 0 -5
BITMAP
0000
0180
0300
0600
0000
0F80
18C0
10C0
03C0
1CC0
30C0
30C0
30C0
39C0
1EE0
0000
0000
0000
0000
0000
ENDCHAR

STARTCHAR <unknown>
ENCODING 226
SWIDTH 42 0
DWIDTH 12 0
BBX 12 20 0 -5
BITMAP
0200
0700
0D80
18C0
0000
0F80
18C0
10C0
03C0
1CC0
30C0
30C0
30C0
39C0
1EE0
0000
0000
0000
0000
0000
ENDCHAR

STARTCHAR <unknown>
ENCODING 227
SWIDTH 42 0
DWIDTH 12 0
BBX 12 20 0 -5
BITMAP
0E40
1FC0
1380
0000
0000
0F80
18C0
10C0
03C0
1CC0
30C0
30C0
30C0
39C0
1EE0
0000
0000
0000
0000
0000
ENDCHAR

STARTCHAR <unknown>
ENCODING 228
SWIDTH 42 0
DWIDTH 12 0
BBX 12 20 0 -5
BITMAP
0000
1980
1980
0000
0000
0F80
18C0
10C0
03C0
1CC0
30C0
30C0
30C0
39C0
1EE0
0000
0000
0000
0000
0000
ENDCHAR

STARTCHAR <unknown>
ENCODING 229
SWIDTH 42 0
DWIDTH 12 0
BBX 12 20 0 -5
BITMAP
0700
0D80
0D80
0700
0000
0F80
18C0
10C0
03C0
1CC0
30C0
30C0
30C0
39C0
1EE0
0000
0000
0000
0000
0000
ENDCHAR

STARTCHAR <unknown>
ENCODING 230
SWIDTH 42 0
DWIDTH 12 0
BBX 12 20 0 -5
BITMAP
0000
0000
0000
0000
0000
3DE0
6630
4630
0630
3FF0
6600
C600
C600
E730
7DE0
0000
0000
0000
0000
0000
ENDCHAR

STARTCHAR <unknown>
ENCODING 231
SWIDTH 42 0
DWIDTH 12 0
BBX 12 20 0 -5
BITMAP
0000
0000
0000
0000
0000
1F80
31C0
20C0
6000
6000
6000
6000
7040
30C0
1F80
0600
0300
0180
0F00
0000
ENDCHAR

STARTCHAR <unknown>
ENCODING 232
SWIDTH 42 0
DWIDTH 12 0
BBX 12 20 0 -5
BITMAP
0000
0C00
0600
0300
0000
0F00
30C0
6060
6060
7FE0
6000
6000
3000
1860
0F80
0000
0000
0000
0000
0000
ENDCHAR

STARTCHAR <unknown>
ENCODING 233
SWIDTH 42 0
DWIDTH 12 0
BBX 12 20 0 -5
BITMAP
0000
0180
0300
0600
0000
0F00
30C0
6060
6060
7FE0
6000
6000
3000
1860
0F80
0000
0000
0000
0000
0000
ENDCHAR

STARTCHAR <unknown>
ENCODING 234
SWIDTH 42 0
DWIDTH 12 0
BBX 12 20 0 -5
BITMAP
0200
0700
0D80
18C0
0000
0F00
30C0
6060
6060
7FE0
6000
6000
3000
1860
0F80
0000
0000
0000
0000
0000
ENDCHAR

STARTCHAR <unknown>
ENCODING 235
SWIDTH 42 0
DWIDTH 12 0
BBX 12 20 0 -5
BITMAP
0000
1980
1980
0000
0000
0F00
30C0
6060
6060
7FE0
6000
6000
3000
1860
0F80
0000
0000
0000
0000
0000
ENDCHAR

STARTCHAR <unknown>
ENCODING 236
SWIDTH 42 0
DWIDTH 12 0
BBX 12 20 0 -5
BITMAP
0000
1800
0C00
0600
0000
1E00
0600
0600
0600
0600
0600
0600
0600
0600
1F80
0000
0000
0000
0000
0000
ENDCHAR

STARTCHAR <unknown>
ENCODING 237
SWIDTH 42 0
DWIDTH 12 0
BBX 12 20 0 -5
BITMAP
0000
0180
0300
0600
0000
1E00
0600
0600
0600
0600
0600
0600
0600
0600
1F80
0000
0000
0000
0000
0000
ENDCHAR

STARTCHAR <unknown>
ENCODING 238
SWIDTH 42 0
DWIDTH 12 0
BBX 12 20 0 -5
BITMAP
0400
0E00
1B00
3180
0000
1E00
0600
0600
0600
0600
0600
0600
0600
0600
1F80
0000
0000
0000
0000
0000
ENDCHAR

STARTCHAR <unknown>
ENCODING 239
SWIDTH 42 0
DWIDTH 12 0
BBX 12 20 0 -5
BITMAP
0000
1980
1980
0000
0000
1E00
0600
0600
0600
0600
0600
0600
0600
0600
1F80
0000
0000
0000
0000
0000
ENDCHAR

STARTCHAR <unknown>
ENCODING 240
SWIDTH 42 0
DWIDTH 12 0
BBX 12 20 0 -5
BITMAP
1C00
06C0
0300
0D80
00C0
00C0
0060
0F60
18E0
3060
3060
3060
3060
18C0
0F00
0000
0000
0000
0000
0000
ENDCHAR

STARTCHAR <unknown>
ENCODING 241
SWIDTH 42 0
DWIDTH 12 0
BBX 12 20 0 -5
BITMAP
1C40
3FC0
2380
0000
0000
2780
79C0
30C0
30C0
30C0
30C0
30C0
30C0
30C0
79E0
0000
0000
0000
0000
0000
ENDCHAR

STARTCHAR <unknown>
ENCODING 242
SWIDTH 42 0
DWIDTH 12 0
BBX 12 20 0 -5
BITMAP
0000
0C00
0600
0300
0000
0F80
11C0
20E0
6060
6060
6060
6060
7040
3880
1F00
0000
0000
0000
0000
0000
ENDCHAR

STARTCHAR <unknown>
ENCODING 243
SWIDTH 42 0
DWIDTH 12 0
BBX 12 20 0 -5
BITMAP
0000
0180
0300
0600
0000
0F80
11C0
20E0
6060
6060
6060
6060
7040
3880
1F00
0000
0000
0000
0000
0000
ENDCHAR

STARTCHAR <unknown>
ENCODING 244
SWIDTH 42 0
DWIDTH 12 0
BBX 12 20 0 -5
BITMAP
0200
0700
0D80
18C0
0000
0F80
11C0
20E0
6060
6060
6060
6060
7040
3880
1F00
0000
0000
0000
0000
0000
ENDCHAR

STARTCHAR <unknown>
ENCODING 245
SWIDTH 42 0
DWIDTH 12 0
BBX 12 20 0 -5
BITMAP
1C40
3FC0
2380
0000
0000
0F80
11C0
20E0
6060
6060
6060
6060
7040
3880
1F00
0000
0000
0000
0000
0000
ENDCHAR

STARTCHAR <unknown>
ENCODING 246
SWIDTH 42 0
DWIDTH 12 0
BBX 12 20 0 -5
BITMAP
0000
1980
1980
0000
0000
0F80
11C0
20E0
6060
6060
6060
6060
7040
3880
1F00
0000
0000
0000
0000
0000
ENDCHAR

STARTCHAR <unknown>
ENCODING 247
SWIDTH 42 0
DWIDTH 12 0
BBX 12 20 0 -5
BITMAP
0000
0000
0000
0000
0000
0600
0600
0000
0000
7FE0
7FE0
0000
0000
0600
0600
0000
0000
0000
0000
0000
ENDCHAR

STARTCHAR <unknown>
ENCODING 248
SWIDTH 42 0
DWIDTH 12 0
BBX 12 20 0 -5
BITMAP
0000
0000
0000
0000
0010
0FA0
11C0
20E0
6160
6260
6460
6860
7040
3880
5F00
8000
0000
0000
0000
0000
ENDCHAR

STARTCHAR <unknown>
ENCODING 249
SWIDTH 42 0
DWIDTH 12 0
BBX 12 20 0 -5
BITMAP
0000
1800
0C00
0600
0000
79E0
30C0
30C0
30C0
30C0
30C0
30C0
30C0
39C0
1E60
0000
0000
0000
0000
0000
ENDCHAR

STARTCHAR <unknown>
ENCODING 250
SWIDTH 42 0
DWIDTH 12 0
BBX 12 20 0 -5
BITMAP
0000
0180
0300
0600
0000
79E0
30C0
30C0
30C0
30C0
30C0
30C0
30C0
39C0
1E60
0000
0000
0000
0000
0000
ENDCHAR

STARTCHAR <unknown>
ENCODING 251
SWIDTH 42 0
DWIDTH 12 0
BBX 12 20 0 -5
BITMAP
0200
0700
0D80
18C0
0000
79E0
30C0
30C0
30C0
30C0
30C0
30C0
30C0
39C0
1E60
0000
0000
0000
0000
0000
ENDCHAR

STARTCHAR <unknown>
ENCODING 252
SWIDTH 42 0
DWIDTH 12 0
BBX 12 20 0 -5
BITMAP
0000
1980
1980
0000
0000
79E0
30C0
30C0
30C0
30C0
30C0
30C0
30C0
39C0
1E60
0000
0000
0000
0000
0000
ENDCHAR

STARTCHAR <unknown>
ENCODING 253
SWIDTH 42 0
DWIDTH 12 0
BBX 12 20 0 -5
BITMAP
0000
0180
0300
0600
0000
F0F0
6020
3040
3040
1880
1880
0D00
0D00
0600
0600
0400
0C00
0800
7800
7000
ENDCHAR

STARTCHAR <unknown>
ENCODING 254
SWIDTH 42 0
DWIDTH 12 0
BBX 12 20 0 -5
BITMAP
0000
0000
0000
0000
0000
7800
3000
3000
3F80
30C0
3060
3060
30C0
3F80
3000
3000
3000
3000
3000
7800
ENDCHAR

STARTCHAR <unknown>
ENCODING 255
SWIDTH 42 0
DWIDTH 12 0
BBX 12 20 0 -5
BITMAP
0000
1980
1980
0000
0000
F0F0
6020
3040
3040
1880
1880
0D00
0D00
0600
0600
0400
0C00
0800
7800
7000
ENDCHAR
ENDFONT
